<?xml version="1.0" standalone="no"?>
<!DOCTYPE svg PUBLIC "-//W3C//DTD SVG 20010904//EN"
 "http://www.w3.org/TR/2001/REC-SVG-20010904/DTD/svg10.dtd">
<svg version="1.0" xmlns="http://www.w3.org/2000/svg"
 width="3200.000000pt" height="3200.000000pt" viewBox="0 0 3200.000000 3200.000000"
 preserveAspectRatio="xMidYMid meet">
<metadata>
Created by potrace 1.14, written by Peter Selinger 2001-2017
</metadata>
<g transform="translate(0.000000,3200.000000) scale(0.100000,-0.100000)"
fill="#000000" stroke="none">
<path d="M4049 17989 c-97 -16 -107 -47 -106 -319 0 -176 3 -221 16 -247 18
-37 69 -63 121 -63 19 0 78 0 130 1 104 0 98 0 218 -1 45 -1 86 1 90 4 4 2 14
1 21 -4 35 -21 125 40 137 93 12 56 7 422 -6 459 -7 20 -28 44 -48 57 -35 23
-41 24 -288 25 -138 1 -266 -2 -285 -5z"/>
<path d="M1509 17906 c-2 -2 -38 -7 -79 -10 -41 -4 -95 -11 -120 -16 -25 -5
-58 -11 -75 -14 -187 -31 -457 -155 -600 -276 -88 -75 -225 -236 -225 -265 0
-4 -9 -20 -21 -36 -11 -16 -17 -29 -13 -29 5 0 3 -5 -4 -12 -7 -7 -12 -20 -12
-30 0 -10 -4 -18 -8 -18 -5 0 -9 -6 -10 -12 -1 -7 -11 -49 -23 -93 -33 -123
-33 -366 1 -510 16 -69 16 -67 27 -95 6 -14 9 -28 7 -31 -2 -4 3 -12 11 -19 8
-7 15 -19 15 -27 0 -44 146 -225 241 -299 106 -81 309 -183 474 -238 44 -15
87 -30 95 -33 17 -7 25 -9 55 -17 11 -3 40 -12 65 -19 25 -8 50 -15 55 -16 6
-1 26 -6 45 -11 19 -6 96 -26 170 -46 74 -19 146 -39 160 -45 14 -5 38 -12 53
-14 76 -14 321 -100 392 -138 11 -6 38 -20 59 -31 65 -35 143 -113 173 -174
25 -51 28 -67 27 -152 0 -74 -5 -108 -23 -154 -26 -65 -113 -166 -162 -186
-16 -7 -29 -16 -29 -20 0 -19 -225 -85 -328 -95 -77 -8 -305 -13 -316 -7 -5 3
-32 6 -60 8 -28 2 -62 6 -76 10 -14 4 -34 8 -45 9 -35 5 -54 11 -61 18 -4 4
-13 7 -21 7 -19 0 -100 39 -162 78 -88 56 -153 131 -205 237 -37 77 -54 100
-88 122 l-42 28 -275 2 c-275 1 -276 1 -313 -23 -54 -35 -60 -96 -24 -259 21
-97 107 -268 175 -349 137 -164 337 -298 574 -385 112 -41 308 -86 417 -97 19
-1 60 -5 90 -8 94 -10 495 -6 495 4 0 1 20 3 45 5 36 3 89 12 120 20 3 0 28 5
55 9 66 11 266 71 330 100 27 13 70 33 95 44 25 11 62 32 83 46 21 14 40 26
44 26 5 0 55 38 112 85 122 100 250 285 291 420 6 22 14 47 17 55 35 92 47
329 24 470 -37 219 -127 375 -291 507 -123 98 -284 181 -475 244 -33 11 -69
24 -80 29 -11 4 -33 12 -50 16 -16 4 -34 8 -40 10 -5 2 -35 10 -65 19 -81 24
-122 35 -150 40 -23 5 -59 13 -85 21 -5 2 -19 5 -30 7 -90 21 -346 96 -415
121 -25 10 -68 25 -95 35 -183 66 -313 176 -350 296 -17 57 -27 160 -17 179 3
5 6 21 7 35 3 40 50 132 84 168 52 53 143 109 214 128 4 2 8 3 10 5 2 2 9 3
57 15 63 15 94 18 225 21 77 2 163 -1 190 -7 28 -5 63 -12 79 -15 16 -2 37 -9
47 -14 10 -6 25 -10 34 -10 9 0 29 -9 43 -19 15 -10 30 -19 35 -20 4 0 32 -17
63 -36 98 -63 166 -151 193 -250 6 -22 21 -52 34 -67 43 -49 78 -54 367 -53
292 0 318 5 343 57 15 30 15 105 2 158 -4 14 -8 34 -10 45 -8 54 -108 250
-161 314 -61 75 -84 100 -128 141 -27 25 -60 55 -73 68 -13 12 -26 22 -29 22
-8 0 -69 44 -72 53 -2 4 -10 7 -17 7 -7 0 -15 4 -17 8 -5 13 -225 118 -293
140 -60 20 -141 44 -160 47 -5 1 -12 3 -15 4 -3 2 -14 4 -25 5 -31 4 -127 18
-155 23 -31 5 -396 13 -401 9z"/>
<path d="M14108 17886 c-18 -12 -38 -33 -45 -46 -10 -20 -13 -401 -13 -1803 0
-1906 -3 -1804 48 -1850 19 -17 132 -41 132 -28 0 4 17 5 38 4 37 -3 175 -4
317 -2 66 1 80 4 106 27 17 14 35 37 40 51 7 16 10 671 10 1799 0 1420 -3
1778 -13 1800 -7 14 -28 37 -47 49 -33 23 -39 23 -287 22 -244 0 -254 -1 -286
-23z"/>
<path d="M30895 17894 c-16 -8 -39 -27 -50 -42 -19 -26 -20 -44 -20 -629 0
-332 -2 -603 -5 -603 -2 0 -26 23 -52 50 -92 97 -308 223 -418 245 -3 1 -18 4
-35 8 -104 25 -159 30 -305 30 -74 0 -160 -3 -190 -7 -152 -18 -333 -87 -460
-175 -61 -42 -194 -184 -243 -259 -81 -123 -156 -299 -182 -427 -11 -49 -25
-126 -30 -155 -19 -125 -25 -450 -12 -645 6 -95 9 -113 23 -195 4 -19 8 -46
10 -60 7 -53 57 -209 96 -297 87 -200 244 -389 393 -475 28 -17 134 -70 145
-73 3 -1 14 -5 25 -9 71 -27 124 -40 210 -52 28 -3 59 -8 70 -10 26 -5 249 -5
300 1 177 19 340 77 484 173 31 20 90 71 132 112 l76 75 -1 -103 c-1 -79 3
-112 16 -140 31 -64 59 -73 228 -72 58 1 112 1 120 1 182 -3 236 2 261 25 49
44 47 -47 46 1854 0 1167 -3 1782 -10 1794 -13 27 -38 51 -64 65 -14 7 -105
11 -275 11 -206 0 -259 -3 -283 -16z m-540 -1515 c74 -14 176 -61 233 -107 49
-40 124 -136 157 -202 69 -136 84 -241 81 -545 -2 -132 -6 -251 -9 -265 -3
-14 -8 -38 -11 -55 -34 -202 -156 -394 -296 -465 -100 -51 -165 -64 -320 -63
-180 1 -299 48 -406 161 -74 77 -139 217 -159 342 -3 19 -8 42 -10 50 -13 48
-27 412 -16 434 2 5 5 36 6 70 3 70 9 108 35 221 12 57 79 205 92 205 4 0 8 6
8 13 0 28 162 167 195 167 6 0 21 6 35 13 37 20 67 26 145 33 39 4 71 7 72 9
6 4 113 -6 168 -16z"/>
<path d="M19105 17852 c-37 -6 -67 -26 -83 -57 -14 -27 -16 -198 -16 -1791 l0
-1761 25 -31 c30 -38 70 -53 140 -52 72 1 73 1 194 1 58 0 111 0 118 0 6 1 37
0 67 -1 95 -2 151 19 165 63 4 12 8 25 10 30 1 4 3 307 4 675 l1 667 803 0
c571 -1 812 2 837 10 20 7 44 26 58 45 21 32 22 41 22 257 0 248 -3 263 -64
299 -30 18 -69 19 -841 19 l-810 0 0 500 0 500 854 1 c672 1 862 4 893 15 67
22 72 41 74 289 1 151 -2 224 -11 245 -12 29 -52 73 -67 74 -5 1 -9 2 -10 3
-6 3 -2344 4 -2363 0z"/>
<path d="M6865 16949 c-130 -18 -224 -47 -325 -101 -93 -50 -147 -91 -230
-179 l-65 -68 1 106 c1 119 -9 148 -61 179 -27 17 -56 19 -260 20 -220 0 -276
-5 -301 -31 -43 -42 -42 1 -40 -1350 1 -1240 2 -1281 20 -1308 27 -40 68 -58
129 -57 28 0 59 1 67 1 19 0 182 -1 270 -2 36 0 70 -1 75 -1 47 0 99 31 119
70 11 21 20 116 17 177 -1 38 -2 142 -1 150 2 6 1 15 0 20 -5 22 -5 95 0 95 3
0 3 24 0 53 -3 28 -3 85 0 125 3 41 3 75 1 77 -4 4 -4 98 0 113 1 4 0 12 -1
17 -5 22 -5 95 0 95 3 0 3 24 0 53 -3 28 -3 96 0 150 3 53 3 97 0 97 -5 0 -5
56 1 201 1 36 0 70 -4 75 -3 6 -2 16 3 24 4 7 4 23 0 36 -5 12 -7 24 -5 25 2
2 6 29 9 59 11 99 15 118 30 167 77 254 290 387 560 349 120 -17 245 -99 324
-213 28 -42 67 -145 77 -208 5 -27 10 -57 12 -65 2 -8 5 -382 7 -830 2 -448 4
-820 4 -826 1 -6 15 -25 32 -44 27 -30 35 -33 97 -36 37 -2 74 -6 81 -9 6 -2
12 0 12 6 0 6 5 7 11 4 5 -4 76 -6 157 -5 81 1 157 1 170 1 33 -1 77 24 101
58 20 27 20 42 21 382 1 195 0 401 -1 459 0 58 -1 110 -1 115 3 343 11 766 15
785 29 147 82 238 196 340 17 15 89 55 100 55 3 0 11 3 16 7 40 25 208 39 275
23 14 -3 36 -8 50 -11 26 -6 91 -35 125 -56 11 -7 45 -38 75 -68 80 -79 108
-138 146 -305 4 -16 8 -390 10 -830 2 -440 3 -817 4 -838 0 -56 52 -109 111
-114 68 -4 341 -5 346 0 2 3 20 1 39 -3 18 -4 34 -5 34 -1 0 3 17 5 38 5 46
-2 88 29 105 77 9 26 12 247 11 864 -1 457 -4 855 -8 885 -12 106 -16 130 -27
177 -6 27 -13 58 -15 71 -15 80 -84 233 -144 323 -46 68 -190 214 -221 224
-10 4 -19 9 -19 13 0 4 -30 23 -68 42 -37 19 -70 40 -74 45 -4 6 -8 6 -8 1 0
-5 -7 -3 -15 4 -8 7 -15 10 -15 7 0 -4 -20 2 -45 13 -25 11 -48 19 -50 19 -3
-1 -36 5 -73 12 -96 18 -364 17 -397 -3 -6 -3 -20 -4 -32 -3 -13 1 -23 -2 -23
-6 0 -4 -17 -10 -37 -14 -21 -4 -53 -13 -70 -21 -18 -8 -50 -21 -70 -31 -48
-20 -177 -99 -211 -127 -58 -47 -141 -134 -182 -189 l-43 -58 -20 45 c-11 26
-23 46 -28 46 -5 0 -9 5 -9 11 0 14 -72 101 -120 147 -42 40 -157 118 -196
133 -16 5 -42 16 -59 23 -34 15 -85 30 -165 47 -62 14 -289 19 -365 8z"/>
<path d="M11978 16955 c-2 -2 -26 -6 -53 -8 -156 -16 -314 -72 -445 -159 -58
-39 -172 -143 -208 -192 l-22 -29 -1 124 c-1 68 -1 127 0 132 0 4 -3 7 -9 7
-5 0 -10 6 -10 14 0 8 -15 25 -32 38 -32 22 -38 23 -277 23 -245 1 -270 -2
-305 -37 -38 -38 -37 -7 -36 -1831 0 -974 1 -1779 3 -1787 1 -8 11 -27 21 -42
31 -47 76 -54 347 -53 268 2 267 2 313 63 18 23 19 60 19 639 l0 616 62 -64
c77 -81 107 -106 172 -147 97 -62 215 -111 310 -128 21 -4 47 -8 58 -11 93
-19 340 -18 435 2 14 3 41 8 60 11 48 8 162 44 178 57 6 5 12 6 12 3 0 -8 119
56 165 88 234 164 408 472 460 816 42 271 36 689 -11 930 -33 167 -129 414
-184 473 -11 11 -20 25 -20 30 0 4 -6 14 -12 22 -7 7 -35 40 -63 73 -126 149
-352 276 -545 306 -19 3 -46 8 -60 11 -26 7 -317 15 -322 10z m2 -568 c36 -3
72 -7 80 -9 8 -3 35 -12 60 -19 149 -45 277 -182 333 -359 24 -74 29 -96 46
-220 10 -67 8 -476 -2 -520 -3 -14 -8 -41 -11 -60 -25 -161 -94 -301 -200
-401 -44 -42 -159 -96 -236 -112 -53 -11 -268 -16 -277 -7 -3 3 -6 4 -58 14
-105 20 -236 111 -302 207 -37 53 -83 150 -83 172 0 10 -4 17 -8 17 -26 0 -49
277 -43 525 0 17 0 37 0 45 -2 28 13 175 21 210 21 86 28 107 37 125 6 11 11
22 10 25 -1 12 40 89 76 144 45 66 98 120 142 143 17 9 32 19 35 22 6 7 93 39
130 47 14 3 52 8 85 11 33 3 61 7 63 8 2 2 11 1 20 -1 9 -2 46 -5 82 -7z"/>
<path d="M16708 16955 c-2 -1 -27 -5 -56 -9 -120 -14 -215 -35 -283 -61 -20
-8 -39 -11 -43 -8 -3 4 -6 1 -6 -5 0 -7 -7 -12 -16 -12 -22 0 -141 -61 -221
-114 -71 -46 -206 -172 -258 -240 -67 -87 -174 -292 -190 -361 -1 -5 -5 -17
-8 -25 -15 -37 -43 -169 -62 -291 -13 -85 -19 -354 -11 -474 5 -69 16 -169 21
-197 3 -13 8 -39 11 -58 4 -19 13 -60 21 -90 8 -30 17 -66 20 -80 3 -14 9 -29
13 -35 4 -5 13 -28 20 -50 16 -51 101 -215 112 -215 4 0 8 -5 8 -11 0 -33 193
-236 270 -284 25 -15 47 -31 50 -35 3 -4 48 -28 100 -53 99 -48 182 -78 286
-102 55 -13 84 -17 199 -31 68 -8 410 -3 410 6 0 2 21 6 140 25 11 2 20 4 20
5 0 1 8 3 18 6 60 14 132 36 142 42 6 4 12 7 15 8 40 8 194 88 292 152 163
105 299 260 343 392 26 76 20 109 -28 153 l-30 27 -262 0 c-144 0 -277 -3
-294 -6 -18 -4 -47 -23 -69 -46 -139 -149 -172 -177 -260 -219 -120 -58 -274
-74 -417 -45 -37 7 -141 53 -165 72 -79 64 -131 128 -175 216 -25 51 -47 100
-49 108 -1 8 -8 34 -15 57 -15 53 -23 121 -25 198 l-1 60 890 1 c979 1 929 -3
970 61 16 23 19 48 19 153 0 124 -9 272 -19 320 -3 14 -7 39 -10 56 -23 176
-130 427 -246 581 -71 95 -237 252 -266 253 -7 0 -13 5 -13 10 0 6 -6 10 -14
10 -8 0 -16 4 -18 9 -8 22 -219 110 -316 132 -26 6 -56 13 -67 15 -11 3 -33 7
-50 9 -16 3 -41 7 -55 11 -25 5 -366 14 -372 9z m293 -493 c63 -15 133 -46
177 -79 39 -28 122 -113 122 -125 0 -4 6 -13 14 -20 18 -19 51 -85 75 -150 27
-73 41 -152 45 -242 l3 -76 -585 0 -585 0 6 88 c4 49 8 95 11 103 3 8 7 28 10
44 6 42 34 121 64 180 61 121 155 209 272 253 14 5 27 11 30 12 64 26 253 32
341 12z"/>
<path d="M23348 16954 c-2 -1 -30 -5 -63 -8 -157 -16 -282 -48 -417 -106 -86
-38 -177 -89 -206 -117 -7 -7 -17 -13 -22 -13 -19 0 -197 -188 -238 -250 -23
-36 -45 -69 -50 -75 -37 -48 -112 -251 -136 -370 -28 -138 -37 -267 -36 -500
2 -280 13 -394 55 -550 29 -108 97 -274 126 -309 5 -6 29 -39 52 -72 67 -99
156 -186 274 -269 107 -76 334 -160 483 -180 25 -3 52 -8 60 -10 61 -15 337
-22 462 -11 53 5 141 18 198 30 14 3 39 8 55 12 58 11 171 51 227 80 14 8 31
14 37 14 7 0 17 4 24 10 7 5 53 37 103 70 102 66 208 173 278 278 84 127 162
323 183 457 2 17 6 41 9 55 14 76 18 171 19 400 0 298 -8 405 -41 535 -9 33
-17 67 -19 75 -2 8 -4 15 -5 15 -1 0 -3 7 -5 15 -9 45 -89 209 -138 282 -51
76 -158 197 -215 241 -59 46 -120 87 -130 87 -6 0 -12 4 -14 8 -4 12 -142 76
-217 102 -81 27 -173 47 -296 65 -46 7 -392 15 -397 9z m305 -533 c190 -41
330 -174 402 -381 1 -3 4 -12 8 -20 7 -20 18 -68 23 -105 2 -16 7 -41 10 -55
14 -57 13 -554 -1 -652 -15 -104 -41 -205 -57 -225 -6 -7 -8 -13 -4 -13 8 0
-37 -81 -75 -135 -68 -96 -163 -155 -309 -192 -8 -2 -65 -6 -126 -9 -224 -9
-391 68 -495 229 -38 59 -93 196 -102 257 -3 19 -8 46 -11 60 -27 121 -21 623
8 755 6 25 28 103 39 135 28 85 134 231 192 265 55 33 135 74 135 70 0 -3 12
0 28 6 15 6 50 13 77 16 28 3 51 6 52 7 8 7 158 -3 206 -13z"/>
<path d="M26697 16954 c-1 -2 -27 -5 -57 -8 -56 -5 -106 -12 -150 -22 -14 -3
-35 -8 -48 -10 -141 -27 -365 -132 -478 -226 -27 -21 -144 -139 -171 -172 -59
-69 -153 -248 -186 -351 -62 -193 -72 -292 -70 -655 2 -320 3 -340 37 -491 81
-359 290 -631 597 -777 58 -28 168 -68 212 -78 9 -2 25 -6 35 -8 74 -18 115
-26 167 -32 33 -4 74 -8 90 -10 65 -8 405 -3 405 6 0 3 15 5 33 6 30 0 83 8
135 19 12 3 32 7 43 10 81 17 185 55 252 90 16 8 35 15 43 15 8 0 14 5 14 10
0 6 7 10 15 10 8 0 15 3 15 8 0 4 12 13 28 19 15 7 40 24 56 38 16 14 32 25
36 25 9 0 160 152 160 161 0 4 6 14 13 21 71 72 186 314 211 444 3 16 10 52
16 79 20 95 29 223 29 435 2 318 -19 494 -79 670 -21 61 -106 239 -120 250 -4
3 -22 27 -40 55 -37 54 -152 172 -215 221 -108 83 -318 182 -420 198 -21 4
-41 8 -45 11 -7 4 -57 15 -95 20 -11 1 -20 3 -20 4 0 9 -439 23 -448 15z m278
-528 c73 -14 94 -20 152 -48 170 -80 298 -286 319 -513 2 -22 6 -69 9 -105 9
-88 9 -364 0 -475 -15 -212 -85 -397 -189 -501 -61 -61 -160 -119 -221 -130
-17 -3 -48 -9 -70 -14 -52 -12 -227 -6 -288 9 -111 27 -220 99 -293 193 -42
54 -124 252 -110 265 3 3 1 13 -4 23 -18 34 -25 149 -25 405 1 255 4 309 24
410 11 57 52 176 67 197 5 7 16 26 24 43 25 50 141 160 195 184 83 38 88 40
145 50 93 18 193 21 265 7z"/>
<path d="M4042 16894 c-41 -19 -57 -36 -69 -69 -6 -20 -9 -472 -9 -1300 1
-1066 3 -1275 15 -1300 16 -35 72 -66 116 -65 17 1 65 1 108 0 43 0 83 2 88 5
5 4 9 2 9 -3 0 -6 14 -7 34 -2 19 4 37 5 40 2 5 -5 128 -4 176 2 40 4 71 28
89 67 15 32 16 152 16 1316 l0 1282 -25 26 c-14 15 -34 32 -45 38 -30 17 -507
17 -543 1z"/>
</g>
</svg>
