<svg width="29" height="24" viewBox="0 0 29 24" fill="none" xmlns="http://www.w3.org/2000/svg">
<path d="M1 5.17578L3.08 5.5316L4.04301 16.8715C4.12001 17.7976 4.90301 18.5082 5.84301 18.5053H16.752C17.649 18.5072 18.41 17.8549 18.537 16.9772L19.486 10.4953C19.592 9.77083 19.083 9.09872 18.351 8.99395C18.287 8.98505 3.414 8.98011 3.414 8.98011" stroke="#363853" stroke-width="1.5" stroke-linecap="round" stroke-linejoin="round"/>
<path d="M12.375 12.6334H15.1479" stroke="#363853" stroke-width="1.5" stroke-linecap="round" stroke-linejoin="round"/>
<path fill-rule="evenodd" clip-rule="evenodd" d="M5.4043 21.9316C5.70527 21.9316 5.94824 22.1729 5.94824 22.4696C5.94824 22.7673 5.70527 23.0085 5.4043 23.0085C5.10333 23.0085 4.86035 22.7673 4.86035 22.4696C4.86035 22.1729 5.10333 21.9316 5.4043 21.9316Z" stroke="#363853" stroke-width="1.5" stroke-linecap="round" stroke-linejoin="round"/>
<path fill-rule="evenodd" clip-rule="evenodd" d="M16.6846 21.9316C16.9856 21.9316 17.2296 22.1729 17.2296 22.4696C17.2296 22.7673 16.9856 23.0085 16.6846 23.0085C16.3836 23.0085 16.1406 22.7673 16.1406 22.4696C16.1406 22.1729 16.3836 21.9316 16.6846 21.9316Z" stroke="#363853" stroke-width="1.5" stroke-linecap="round" stroke-linejoin="round"/>
<circle cx="22" cy="7" r="7" fill="#FF6838"/>
<path d="M23.01 11C22.9433 11 22.8867 10.98 22.84 10.94C22.8 10.8933 22.78 10.8367 22.78 10.77V9.33H19.54C19.4733 9.33 19.4167 9.31 19.37 9.27C19.33 9.22333 19.31 9.16667 19.31 9.1V8.7C19.31 8.67333 19.3167 8.63333 19.33 8.58C19.35 8.52 19.38 8.46 19.42 8.4L22.42 4.17C22.5 4.05667 22.6233 4 22.79 4H23.51C23.5767 4 23.63 4.02333 23.67 4.07C23.7167 4.11 23.74 4.16333 23.74 4.23V8.46H24.64C24.7133 8.46 24.77 8.48333 24.81 8.53C24.8567 8.57 24.88 8.62333 24.88 8.69V9.1C24.88 9.16667 24.8567 9.22333 24.81 9.27C24.77 9.31 24.7167 9.33 24.65 9.33H23.74V10.77C23.74 10.8367 23.7167 10.8933 23.67 10.94C23.63 10.98 23.5767 11 23.51 11H23.01ZM20.38 8.48H22.79V5.05L20.38 8.48Z" fill="white"/>
</svg>
